<?xml version="1.0" encoding="utf-8"?>
<!-- Generator: Adobe Illustrator 26.2.1, SVG Export Plug-In . SVG Version: 6.00 Build 0)  -->
<svg version="1.1" id="Layer_1" xmlns="http://www.w3.org/2000/svg" xmlns:xlink="http://www.w3.org/1999/xlink" x="0px" y="0px"
	 viewBox="0 0 1565.6 885.1" style="enable-background:new 0 0 1565.6 885.1;" xml:space="preserve">
<g>
	<path d="M772.6,856.5c-0.4,0-0.8-0.1-1.1-0.4c-0.6-0.6-0.6-1.5,0-2.1c1.2-1.3,4.5-11.9,7.3-21.3c4-13.3,8.6-28.3,12.2-34.2
		c0.4-0.7,1.4-0.9,2.1-0.5c0.7,0.4,0.9,1.4,0.5,2.1c-3.3,5.5-7.9,20.4-11.9,33.5c-4.2,13.7-6.4,20.9-8.1,22.6
		C773.3,856.4,773,856.5,772.6,856.5z"/>
</g>
<g>
	<path d="M798.6,850.2c-0.2,0-0.4,0-0.6-0.1c-0.8-0.3-1.1-1.2-0.8-2l9.1-21.6c0.3-0.8,1.2-1.1,2-0.8c0.8,0.3,1.1,1.2,0.8,2
		l-9.1,21.6C799.7,849.9,799.2,850.2,798.6,850.2z"/>
</g>
<g>
	<path d="M633.1,416.2c-0.1,0-0.2,0-0.3,0c-0.8-0.2-1.3-1-1.1-1.8l0,0c0.1-0.4,2.4-11-9.2-19.7c-0.7-0.5-0.8-1.4-0.3-2.1
		c0.5-0.7,1.4-0.8,2.1-0.3c13.2,9.9,10.5,22.3,10.4,22.8C634.4,415.8,633.7,416.2,633.1,416.2z"/>
</g>
<g>
	<path d="M619.3,421.8c-0.1,0-0.2,0-0.3,0c-0.8-0.2-1.3-1-1.2-1.8c0.6-2.9-6.5-13.3-11.5-14.4c-0.8-0.2-1.3-1-1.2-1.8s1-1.3,1.8-1.2
		c6.4,1.4,14.7,13.2,13.8,17.9C620.6,421.3,620,421.8,619.3,421.8z"/>
</g>
<g>
	<path d="M1532.8,421.8C1532.8,421.8,1532.8,421.8,1532.8,421.8c-0.9,0-1.5-0.7-1.5-1.5c0.6-19.8-8.8-23.3-13.4-25.1
		c-0.3-0.1-0.5-0.2-0.8-0.3c-4.3-1.7-8.1-20.6-9.6-28.7c-0.1-0.8,0.4-1.6,1.2-1.7c0.8-0.2,1.6,0.4,1.7,1.2
		c2.2,11.9,5.8,25.4,7.8,26.5c0.2,0.1,0.4,0.2,0.7,0.3c4.8,1.8,16,6.1,15.3,28C1534.3,421.1,1533.6,421.8,1532.8,421.8z"/>
</g>
<g>
	<path d="M1547.7,389.4c-0.4,0-0.8-0.2-1.1-0.5l-10-10.2c-0.6-0.6-0.6-1.5,0-2.1s1.5-0.6,2.1,0l10,10.2c0.6,0.6,0.6,1.5,0,2.1
		C1548.4,389.3,1548,389.4,1547.7,389.4z"/>
</g>
<g>
	<path d="M887,281.1c-0.3,0-0.6-0.1-0.9-0.3c-0.7-0.5-0.8-1.4-0.3-2.1l17.3-22.9c0.5-0.7,1.4-0.8,2.1-0.3c0.7,0.5,0.8,1.4,0.3,2.1
		l-17.3,22.9C887.9,280.9,887.4,281.1,887,281.1z"/>
</g>
<g>
	<path d="M1484.1,828.7c-0.4,0-0.9-0.2-1.2-0.5c-10.6-12.8-33.4-7.1-33.6-7.1c-0.8,0.2-1.6-0.3-1.8-1.1c-0.2-0.8,0.3-1.6,1.1-1.8
		c1-0.3,24.8-6.2,36.7,8.1c0.5,0.6,0.4,1.6-0.2,2.1C1484.8,828.5,1484.4,828.7,1484.1,828.7z"/>
</g>
<g>
	<path d="M835.6,91.9C835.6,91.9,835.6,91.9,835.6,91.9c-0.9,0-1.5-0.7-1.5-1.6c0-0.4,1.5-38.3-3.8-48.1
		c-5.1-9.5-13.2-11.9-13.3-11.9c-0.8-0.2-1.3-1-1-1.8c0.2-0.8,1-1.3,1.8-1c0.4,0.1,9.4,2.7,15.1,13.3c5.6,10.5,4.2,48.1,4.1,49.6
		C837.1,91.2,836.4,91.9,835.6,91.9z"/>
</g>
<g>
	<path d="M822.2,69c-0.7,0-1.3-0.5-1.5-1.2L816,46.5c-0.2-0.8,0.3-1.6,1.1-1.8c0.8-0.2,1.6,0.3,1.8,1.1l4.7,21.3
		c0.2,0.8-0.3,1.6-1.1,1.8C822.5,69,822.3,69,822.2,69z"/>
</g>
<g>
	<path d="M1057.2,628.7c-0.6,0-1.1-0.3-1.4-0.9L1044,601c-0.3-0.8,0-1.6,0.8-2c0.8-0.3,1.6,0,2,0.8l11.8,26.8c0.3,0.8,0,1.6-0.8,2
		C1057.6,628.7,1057.4,628.7,1057.2,628.7z"/>
</g>
<g>
	<path d="M1390.7,96.6c-0.2,0-0.4,0-0.6-0.1c-0.8-0.3-1.1-1.2-0.8-2l9.4-21.3c0.3-0.8,1.2-1.1,2-0.8c0.8,0.3,1.1,1.2,0.8,2
		l-9.4,21.3C1391.8,96.3,1391.3,96.6,1390.7,96.6z"/>
</g>
<g>
	<path d="M1403.2,102.9c-0.5,0-1.1-0.3-1.3-0.8c-0.4-0.7-0.1-1.6,0.7-2l12.6-6.3c0.7-0.4,1.6-0.1,2,0.7c0.4,0.7,0.1,1.6-0.7,2
		l-12.6,6.3C1403.7,102.9,1403.5,102.9,1403.2,102.9z"/>
</g>
<g>
	<path d="M1382.7,124.2c-0.1,0-0.1,0-0.2,0c-0.8-0.1-1.4-0.8-1.3-1.7c0.9-8,11.1-10.6,11.5-10.8c0.8-0.2,1.6,0.3,1.8,1.1
		c0.2,0.8-0.3,1.6-1.1,1.8l0,0c-0.1,0-8.6,2.2-9.3,8.2C1384.1,123.6,1383.5,124.2,1382.7,124.2z"/>
</g>
<g>
	<path d="M200.3,606.6c-2,0-2.6-2.2-3.9-7.7c-1.7-7-4.3-17.5-10.6-24.3c-9.8-10.6-26-15.3-26.1-15.3c-0.8-0.2-1.3-1.1-1-1.9
		c0.2-0.8,1.1-1.3,1.9-1c0.7,0.2,17.1,5,27.5,16.2c6.8,7.4,9.5,18.4,11.3,25.7c0.5,2.2,1.2,4.7,1.6,5.5c0.5,0.2,0.9,0.8,0.9,1.4
		C201.8,606,201.1,606.6,200.3,606.6z"/>
</g>
<g>
	<path d="M185.3,606.6c-0.6,0-1.2-0.4-1.4-1.1l-5.1-16.6c-0.2-0.8,0.2-1.6,1-1.9c0.8-0.2,1.6,0.2,1.9,1l5.1,16.6
		c0.2,0.8-0.2,1.6-1,1.9C185.6,606.6,185.4,606.6,185.3,606.6z"/>
</g>
<g>
	<path d="M380,753.3c-0.4,0-0.8-0.2-1.1-0.5c-0.5-0.6-0.5-1.6,0.2-2.1l22.1-18.9c0.6-0.5,1.6-0.5,2.1,0.2c0.5,0.6,0.5,1.6-0.2,2.1
		L381,752.9C380.7,753.2,380.3,753.3,380,753.3z"/>
</g>
<g>
	<path d="M64.7,114.7c-0.3,0-0.6-0.1-0.9-0.3l-21.3-15c-0.7-0.5-0.8-1.4-0.4-2.1c0.5-0.7,1.4-0.8,2.1-0.4l21.3,15
		c0.7,0.5,0.8,1.4,0.4,2.1C65.6,114.5,65.1,114.7,64.7,114.7z"/>
</g>
<g>
	<path d="M336.6,302.4c-0.4,0-0.8-0.1-1.1-0.4l-5.5-5.5c-0.6-0.6-0.6-1.5,0-2.1c0.6-0.6,1.5-0.6,2.1,0l5.5,5.5
		c0.6,0.6,0.6,1.5,0,2.1C337.4,302.2,337,302.4,336.6,302.4z"/>
</g>
</svg>
