<?xml version="1.0" encoding="utf-8"?>
<!-- Generator: Adobe Illustrator 26.2.1, SVG Export Plug-In . SVG Version: 6.00 Build 0)  -->
<svg version="1.1" id="Layer_1" xmlns="http://www.w3.org/2000/svg" xmlns:xlink="http://www.w3.org/1999/xlink" x="0px" y="0px"
	 viewBox="0 0 472.7 466.1" style="enable-background:new 0 0 472.7 466.1;" xml:space="preserve">

<path class="st0" d="M-0.9-273.4c0,0-23.6,86.6,32.2,120.2s358.6,15,401.5-96.6s17.9-239.8-28.6-286.3
	c-46.5-46.5-211.9-43.7-264.8,10S34.8-432.3-0.9-273.4z"/>
<path class="st0" d="M1121.3,122.1c0,0,27.6-53.7,30-131.7s-26-172.6-62.3-217.6c-36.3-44.9-160-47.3-220.7,7.1
	c-60.7,54.4-42.6,94.6-108.8,123s-93.8,138-74.9,182.9c18.9,44.9,53.6,117.3,187.6,119.3S1092.1,162.4,1121.3,122.1z"/>
<path class="st0" d="M375,421.2c-64.4,19.6-60.7-56.6-149-63c-88.3-6.4-213.6-23.7-214.4-121.5C10.8,139,83.3,50.7,141.7,52.3
	S334,34.2,382.9,91.7s84.4,114.3,77.3,201C453.1,379.5,429.4,404.7,375,421.2z"/>
</svg>
