<?xml version="1.0" encoding="utf-8"?>
<!-- Generator: Adobe Illustrator 26.2.1, SVG Export Plug-In . SVG Version: 6.00 Build 0)  -->
<svg version="1.1" id="Layer_1" xmlns="http://www.w3.org/2000/svg" xmlns:xlink="http://www.w3.org/1999/xlink" x="0px" y="0px"
	 viewBox="0 0 472.7 466.1" style="enable-background:new 0 0 472.7 466.1;" xml:space="preserve">

<path class="st0" d="M910.9,841.4c0,0-26,95.4,35.5,132.4s394.9,16.6,442.2-106.4c47.3-123,19.7-264.1-31.5-315.3
	c-51.2-51.2-233.3-48.1-291.7,11C1007,622.3,950.3,666.4,910.9,841.4z"/>
<path class="st0" d="M442.6,383c0,0,27.6-53.7,30-131.7c2.4-78-26-172.6-62.3-217.6s-160-47.3-220.7,7.1s-42.6,94.6-108.8,123
	s-93.8,138-74.9,182.9S59.4,464,193.5,466C327.5,468.1,413.4,423.3,442.6,383z"/>
<path class="st0" d="M1277.4,1445.3c-64.4,19.6-60.7-56.6-149-63c-88.3-6.4-213.6-23.7-214.4-121.5s71.7-186,130.1-184.5
	c58.3,1.6,192.4-18.1,241.2,39.4c48.9,57.5,84.4,114.3,77.3,201S1331.8,1428.7,1277.4,1445.3z"/>
</svg>
